<svg xmlns="http://www.w3.org/2000/svg" viewBox="0 0 1280 720" width="1280" height="720" role="img" aria-label="Langhub speaking demo placeholder">
  <defs>
    <linearGradient id="bg2" x1="0" y1="0" x2="1" y2="1">
      <stop offset="0%" stop-color="#EEF1EA" />
      <stop offset="100%" stop-color="#F4EFE6" />
    </linearGradient>
  </defs>
  <rect width="1280" height="720" fill="url(#bg2)" />
  <g transform="translate(160,140)">
    <rect width="960" height="440" rx="24" fill="#FFFFFF" stroke="#DDD8CD" stroke-width="1.5" />
    <g transform="translate(40,40)">
      <rect width="540" height="80" rx="16" fill="#FAF8F3" stroke="#DDD8CD" />
      <circle cx="34" cy="40" r="14" fill="#5A8C7E" />
      <rect x="60" y="24" width="240" height="10" rx="4" fill="#DDD8CD" />
      <rect x="60" y="46" width="360" height="10" rx="4" fill="#EAE5DA" />
    </g>
    <g transform="translate(380,150)">
      <rect width="540" height="80" rx="16" fill="#C7DDB5" />
      <rect x="20" y="24" width="200" height="10" rx="4" fill="#3D5248" opacity="0.5" />
      <rect x="20" y="46" width="380" height="10" rx="4" fill="#3D5248" opacity="0.35" />
    </g>
    <g transform="translate(40,260)">
      <rect width="540" height="80" rx="16" fill="#FAF8F3" stroke="#DDD8CD" />
      <circle cx="34" cy="40" r="14" fill="#8B85B8" />
      <rect x="60" y="24" width="280" height="10" rx="4" fill="#DDD8CD" />
      <rect x="60" y="46" width="300" height="10" rx="4" fill="#EAE5DA" />
    </g>
    <g transform="translate(40,360)">
      <rect width="880" height="50" rx="12" fill="#F4EFE6" stroke="#DDD8CD" />
      <circle cx="34" cy="25" r="12" fill="#B87575" />
      <rect x="56" y="20" width="600" height="10" rx="4" fill="#DDD8CD" />
    </g>
  </g>
  <g transform="translate(160,620)" font-family="Instrument Serif, serif" fill="#1F2420">
    <text font-size="44" font-style="italic">Speaking &middot; live AI dialogue</text>
  </g>
</svg>
