<svg xmlns="http://www.w3.org/2000/svg" viewBox="0 0 1280 720" width="1280" height="720" role="img" aria-label="Langhub writing demo placeholder">
  <defs>
    <linearGradient id="bg" x1="0" y1="0" x2="1" y2="1">
      <stop offset="0%" stop-color="#F4EFE6" />
      <stop offset="100%" stop-color="#EEF1EA" />
    </linearGradient>
  </defs>
  <rect width="1280" height="720" fill="url(#bg)" />
  <g transform="translate(160,140)">
    <rect width="960" height="440" rx="24" fill="#FFFFFF" stroke="#DDD8CD" stroke-width="1.5" />
    <rect x="40" y="44" width="180" height="14" rx="6" fill="#DDD8CD" />
    <rect x="40" y="78" width="540" height="14" rx="6" fill="#DDD8CD" />
    <rect x="40" y="106" width="480" height="14" rx="6" fill="#DDD8CD" />
    <rect x="40" y="158" width="640" height="10" rx="4" fill="#EAE5DA" />
    <rect x="40" y="180" width="600" height="10" rx="4" fill="#EAE5DA" />
    <rect x="40" y="202" width="540" height="10" rx="4" fill="#EAE5DA" />
    <g transform="translate(700,160)">
      <rect width="220" height="240" rx="16" fill="#FAF8F3" stroke="#DDD8CD" />
      <rect x="20" y="22" width="120" height="10" rx="4" fill="#DDD8CD" />
      <rect x="20" y="60" width="180" height="8" rx="3" fill="#5A8C7E" />
      <rect x="20" y="92" width="140" height="8" rx="3" fill="#C7DDB5" />
      <rect x="20" y="124" width="170" height="8" rx="3" fill="#C9A25D" />
      <rect x="20" y="156" width="100" height="8" rx="3" fill="#B87575" opacity="0.6" />
      <text x="20" y="208" font-family="DM Sans, sans-serif" font-size="14" fill="#71796F">AI grading</text>
    </g>
  </g>
  <g transform="translate(160,620)" font-family="Instrument Serif, serif" fill="#1F2420">
    <text font-size="44" font-style="italic">Writing &middot; AI grading demo</text>
  </g>
</svg>
